# xmcd
#
# Track frame offsets:
#	150
#	18976
#	35173
#	52416
#	66306
#	82812
#	104257
#	122494
#	142377
#	157116
#	181954
#	202640
#
# Disc length: 2931 seconds
#
# Revision: 0
# Processed by: cddbd v1.5.2PL0 Copyright (c) Steve Scherf et al.
# Submitted via: audiograbber 1.83.01
#
DISCID=aa0b710c
DTITLE=Manuel Orta - Fantasía
DYEAR=2003
DGENRE=Folklore
TTITLE0=Ay, José
TTITLE1=Fantasía
TTITLE2=Flamenco
TTITLE3=Espabílate
TTITLE4=Dónde Estas Amor? 
TTITLE5=El Heredero
TTITLE6=Desaparece
TTITLE7=El Carretero
TTITLE8=Gitana
TTITLE9=Mi Público
TTITLE10=La Carretera
TTITLE11=Amigo
EXTD=
EXTT0=
EXTT1=
EXTT2=
EXTT3=
EXTT4=
EXTT5=
EXTT6=
EXTT7=
EXTT8=
EXTT9=
EXTT10=
EXTT11=
PLAYORDER=
